<svg width="60" height="60" viewBox="0 0 60 60" fill="none" xmlns="http://www.w3.org/2000/svg">
<path d="M37.2914 33.3117C38.7691 32.1796 39.8549 30.613 40.3963 28.832C40.9376 27.051 40.9074 25.1451 40.3097 23.3822C39.712 21.6193 38.577 20.0879 37.0641 19.0034C35.5512 17.9188 33.7365 17.3355 31.875 17.3355C30.0135 17.3355 28.1988 17.9188 26.6859 19.0034C25.173 20.0879 24.038 21.6193 23.4403 23.3822C22.8426 25.1451 22.8124 27.051 23.3537 28.832C23.8951 30.613 24.9809 32.1796 26.4586 33.3117C23.686 34.3472 21.2702 36.1593 19.5 38.5312C19.2762 38.8296 19.1801 39.2047 19.2329 39.5739C19.2856 39.9431 19.4829 40.2762 19.7812 40.5C20.0796 40.7238 20.4547 40.8199 20.8239 40.7671C21.1931 40.7144 21.5262 40.5171 21.75 40.2188C22.9289 38.6469 24.4576 37.3711 26.215 36.4924C27.9723 35.6137 29.9102 35.1562 31.875 35.1562C33.8398 35.1562 35.7777 35.6137 37.535 36.4924C39.2924 37.3711 40.8211 38.6469 42 40.2188C42.2238 40.5171 42.5569 40.7144 42.9261 40.7671C43.2953 40.8199 43.6704 40.7238 43.9688 40.5C44.2671 40.2762 44.4644 39.9431 44.5171 39.5739C44.5699 39.2047 44.4738 38.8296 44.25 38.5312C42.4798 36.1593 40.064 34.3472 37.2914 33.3117ZM25.7812 26.25C25.7812 25.0448 26.1386 23.8666 26.8082 22.8645C27.4778 21.8624 28.4295 21.0813 29.543 20.6201C30.6565 20.1589 31.8818 20.0382 33.0638 20.2733C34.2459 20.5085 35.3317 21.0888 36.1839 21.9411C37.0362 22.7933 37.6165 23.8791 37.8517 25.0612C38.0868 26.2432 37.9661 27.4685 37.5049 28.582C37.0437 29.6955 36.2626 30.6472 35.2605 31.3168C34.2584 31.9864 33.0802 32.3438 31.875 32.3438C30.2588 32.3438 28.7089 31.7017 27.5661 30.5589C26.4233 29.4161 25.7812 27.8662 25.7812 26.25ZM48.75 6.09375H15C14.1298 6.09375 13.2952 6.43945 12.6798 7.05481C12.0645 7.67016 11.7188 8.50476 11.7188 9.375V15.4688H7.5C7.12704 15.4688 6.76935 15.6169 6.50563 15.8806C6.24191 16.1444 6.09375 16.502 6.09375 16.875C6.09375 17.248 6.24191 17.6056 6.50563 17.8694C6.76935 18.1331 7.12704 18.2812 7.5 18.2812H11.7188V28.5938H7.5C7.12704 28.5938 6.76935 28.7419 6.50563 29.0056C6.24191 29.2694 6.09375 29.627 6.09375 30C6.09375 30.373 6.24191 30.7306 6.50563 30.9944C6.76935 31.2581 7.12704 31.4062 7.5 31.4062H11.7188V41.7188H7.5C7.12704 41.7188 6.76935 41.8669 6.50563 42.1306C6.24191 42.3944 6.09375 42.752 6.09375 43.125C6.09375 43.498 6.24191 43.8556 6.50563 44.1194C6.76935 44.3831 7.12704 44.5312 7.5 44.5312H11.7188V50.625C11.7188 51.4952 12.0645 52.3298 12.6798 52.9452C13.2952 53.5605 14.1298 53.9062 15 53.9062H48.75C49.6202 53.9062 50.4548 53.5605 51.0702 52.9452C51.6855 52.3298 52.0312 51.4952 52.0312 50.625V9.375C52.0312 8.50476 51.6855 7.67016 51.0702 7.05481C50.4548 6.43945 49.6202 6.09375 48.75 6.09375ZM49.2188 50.625C49.2188 50.7493 49.1694 50.8685 49.0815 50.9565C48.9935 51.0444 48.8743 51.0938 48.75 51.0938H15C14.8757 51.0938 14.7565 51.0444 14.6685 50.9565C14.5806 50.8685 14.5312 50.7493 14.5312 50.625V9.375C14.5312 9.25068 14.5806 9.13145 14.6685 9.04354C14.7565 8.95564 14.8757 8.90625 15 8.90625H48.75C48.8743 8.90625 48.9935 8.95564 49.0815 9.04354C49.1694 9.13145 49.2188 9.25068 49.2188 9.375V50.625Z" fill="#3C210E"/>
</svg>
