<svg width="20" height="20" viewBox="0 0 20 20" fill="none" xmlns="http://www.w3.org/2000/svg">
<path d="M18.7504 4.3743V8.1243C18.7504 8.29006 18.6846 8.44903 18.5674 8.56624C18.4501 8.68345 18.2912 8.7493 18.1254 8.7493H14.3754C14.2097 8.7493 14.0507 8.68345 13.9335 8.56624C13.8163 8.44903 13.7504 8.29006 13.7504 8.1243C13.7504 7.95854 13.8163 7.79957 13.9335 7.68236C14.0507 7.56515 14.2097 7.4993 14.3754 7.4993H16.516L14.4387 5.59617L14.4192 5.57742C13.5505 4.70905 12.4452 4.1159 11.2413 3.87207C10.0375 3.62823 8.78847 3.74452 7.65033 4.20641C6.51219 4.66829 5.53538 5.4553 4.84193 6.46911C4.14847 7.48292 3.76911 8.67859 3.75124 9.90675C3.73338 11.1349 4.07779 12.3411 4.74145 13.3747C5.40512 14.4082 6.35862 15.2233 7.48284 15.7181C8.60706 16.2129 9.85215 16.3655 11.0626 16.1568C12.273 15.9481 13.3951 15.3873 14.2887 14.5446C14.4092 14.4306 14.57 14.3692 14.7358 14.3738C14.9016 14.3784 15.0587 14.4487 15.1727 14.5692C15.2866 14.6897 15.3481 14.8505 15.3435 15.0163C15.3388 15.1821 15.2686 15.3392 15.1481 15.4532C13.7586 16.771 11.9154 17.5036 10.0004 17.4993H9.89729C8.66896 17.4825 7.46357 17.1642 6.38705 16.5724C5.31054 15.9806 4.39587 15.1335 3.72343 14.1054C3.05099 13.0774 2.64137 11.8999 2.53057 10.6764C2.41977 9.45301 2.61119 8.22109 3.088 7.08895C3.56481 5.95682 4.31241 4.95913 5.26509 4.18359C6.21778 3.40805 7.34638 2.87839 8.5517 2.64117C9.75703 2.40395 11.0022 2.46643 12.1777 2.82311C13.3532 3.1798 14.4231 3.81978 15.2934 4.6868L17.5004 6.70242V4.3743C17.5004 4.20854 17.5663 4.04957 17.6835 3.93236C17.8007 3.81515 17.9597 3.7493 18.1254 3.7493C18.2912 3.7493 18.4501 3.81515 18.5674 3.93236C18.6846 4.04957 18.7504 4.20854 18.7504 4.3743Z" fill="#3C210E"/>
</svg>
