<svg width="32" height="20" viewBox="0 0 32 20" fill="none" xmlns="http://www.w3.org/2000/svg">
<path d="M27.5344 10.6689L21.9094 16.2939C21.7333 16.47 21.4944 16.569 21.2453 16.569C20.9962 16.569 20.7574 16.47 20.5813 16.2939C20.4051 16.1178 20.3062 15.8789 20.3062 15.6298C20.3062 15.3808 20.4051 15.1419 20.5813 14.9658L24.6055 10.9431H5.12109C4.87245 10.9431 4.634 10.8444 4.45818 10.6685C4.28237 10.4927 4.18359 10.2543 4.18359 10.0056C4.18359 9.75699 4.28237 9.51853 4.45818 9.34272C4.634 9.1669 4.87245 9.06813 5.12109 9.06813H24.6055L20.5828 5.04313C20.4067 4.86701 20.3078 4.62814 20.3078 4.37907C20.3078 4.13 20.4067 3.89113 20.5828 3.715C20.7589 3.53888 20.9978 3.43994 21.2469 3.43994C21.4959 3.43994 21.7348 3.53888 21.9109 3.715L27.5359 9.34C27.6234 9.42722 27.6927 9.53084 27.7399 9.64493C27.7872 9.75901 27.8114 9.8813 27.8113 10.0048C27.8111 10.1283 27.7866 10.2505 27.7391 10.3645C27.6916 10.4784 27.622 10.5819 27.5344 10.6689Z" fill="#3C210E"/>
</svg>
