<svg width="16" height="18" viewBox="0 0 16 18" fill="none" xmlns="http://www.w3.org/2000/svg">
<path d="M13.5326 8.53122L8.53255 13.5312C8.46287 13.6011 8.38008 13.6566 8.28892 13.6945C8.19775 13.7323 8.10001 13.7518 8.0013 13.7518C7.90259 13.7518 7.80485 13.7323 7.71369 13.6945C7.62252 13.6566 7.53973 13.6011 7.47005 13.5312L2.47005 8.53122C2.32915 8.39033 2.25 8.19923 2.25 7.99997C2.25 7.80072 2.32915 7.60962 2.47005 7.46872C2.61095 7.32783 2.80204 7.24867 3.0013 7.24867C3.20056 7.24867 3.39165 7.32783 3.53255 7.46872L8.00193 11.9381L12.4713 7.4681C12.6122 7.3272 12.8033 7.24805 13.0026 7.24805C13.2018 7.24805 13.3929 7.3272 13.5338 7.4681C13.6747 7.60899 13.7539 7.80009 13.7539 7.99935C13.7539 8.19861 13.6747 8.3897 13.5338 8.5306L13.5326 8.53122Z" fill="#3C210E"/>
</svg>
