<svg width="28" height="28" viewBox="0 0 28 28" fill="none" xmlns="http://www.w3.org/2000/svg">
<path d="M18.119 22.1309C18.2003 22.2122 18.2648 22.3087 18.3088 22.415C18.3528 22.5212 18.3754 22.635 18.3754 22.75C18.3754 22.865 18.3528 22.9788 18.3088 23.085C18.2648 23.1913 18.2003 23.2878 18.119 23.3691C18.0377 23.4504 17.9412 23.5148 17.835 23.5588C17.7288 23.6028 17.6149 23.6255 17.5 23.6255C17.385 23.6255 17.2711 23.6028 17.1649 23.5588C17.0587 23.5148 16.9622 23.4504 16.8809 23.3691L8.13089 14.6191C8.04954 14.5378 7.985 14.4413 7.94097 14.3351C7.89693 14.2288 7.87427 14.115 7.87427 14C7.87427 13.885 7.89693 13.7711 7.94097 13.6649C7.985 13.5587 8.04954 13.4622 8.13089 13.3809L16.8809 4.63094C17.0451 4.46675 17.2678 4.37451 17.5 4.37451C17.7321 4.37451 17.9548 4.46675 18.119 4.63094C18.2832 4.79512 18.3754 5.0178 18.3754 5.25C18.3754 5.48219 18.2832 5.70487 18.119 5.86906L9.98699 14L18.119 22.1309Z" fill="#3C210E"/>
</svg>
