<svg width="69" height="68" viewBox="0 0 69 68" fill="none" xmlns="http://www.w3.org/2000/svg">
<path d="M33.9688 36.125C33.9688 36.5477 33.8008 36.9531 33.502 37.252C33.2031 37.5508 32.7977 37.7188 32.375 37.7188H19.625C19.2023 37.7188 18.7969 37.5508 18.498 37.252C18.1992 36.9531 18.0312 36.5477 18.0312 36.125C18.0312 35.7023 18.1992 35.2969 18.498 34.998C18.7969 34.6992 19.2023 34.5312 19.625 34.5312H32.375C32.7977 34.5312 33.2031 34.6992 33.502 34.998C33.8008 35.2969 33.9688 35.7023 33.9688 36.125ZM32.375 26.0312H19.625C19.2023 26.0312 18.7969 26.1992 18.498 26.498C18.1992 26.7969 18.0312 27.2023 18.0312 27.625C18.0312 28.0477 18.1992 28.4531 18.498 28.752C18.7969 29.0508 19.2023 29.2188 19.625 29.2188H32.375C32.7977 29.2188 33.2031 29.0508 33.502 28.752C33.8008 28.4531 33.9688 28.0477 33.9688 27.625C33.9688 27.2023 33.8008 26.7969 33.502 26.498C33.2031 26.1992 32.7977 26.0312 32.375 26.0312ZM61.5938 42.6647V59.5C61.5944 59.7801 61.5212 60.0554 61.3816 60.2982C61.242 60.541 61.0409 60.7427 60.7985 60.883C60.5561 61.0233 60.281 61.0973 60.0009 61.0974C59.7208 61.0976 59.4457 61.0239 59.2031 60.8839L52.5625 57.0855L45.9219 60.8839C45.6793 61.0239 45.4042 61.0976 45.1241 61.0974C44.844 61.0973 44.5689 61.0233 44.3265 60.883C44.0841 60.7427 43.883 60.541 43.7434 60.2982C43.6038 60.0554 43.5306 59.7801 43.5312 59.5V52.5938H11.125C10.1387 52.5938 9.19285 52.202 8.49545 51.5046C7.79805 50.8072 7.40625 49.8613 7.40625 48.875V14.875C7.40625 13.8887 7.79805 12.9428 8.49545 12.2454C9.19285 11.548 10.1387 11.1562 11.125 11.1562H57.875C58.8613 11.1563 59.8072 11.548 60.5046 12.2454C61.202 12.9428 61.5938 13.8887 61.5938 14.875V23.2103C62.934 24.4514 64.0033 25.9561 64.7346 27.63C65.4659 29.3039 65.8434 31.1108 65.8434 32.9375C65.8434 34.7642 65.4659 36.5711 64.7346 38.245C64.0033 39.9189 62.934 41.4236 61.5938 42.6647ZM52.5625 22.8438C50.5661 22.8438 48.6146 23.4357 46.9547 24.5449C45.2948 25.654 44.0011 27.2304 43.2371 29.0748C42.4731 30.9192 42.2732 32.9487 42.6627 34.9067C43.0522 36.8647 44.0135 38.6632 45.4251 40.0749C46.8368 41.4865 48.6353 42.4478 50.5933 42.8373C52.5513 43.2268 54.5808 43.0269 56.4252 42.2629C58.2696 41.4989 59.846 40.2052 60.9551 38.5453C62.0643 36.8854 62.6562 34.9339 62.6562 32.9375C62.6562 30.2605 61.5928 27.6931 59.6999 25.8001C57.8069 23.9072 55.2395 22.8438 52.5625 22.8438ZM43.5312 49.4062V42.6647C41.2057 40.4944 39.7363 37.5615 39.3904 34.3994C39.0444 31.2373 39.8449 28.056 41.6462 25.4342C43.4474 22.8124 46.1299 20.9242 49.2056 20.1129C52.2814 19.3016 55.5462 19.6212 58.4062 21.0136V14.875C58.4062 14.7341 58.3503 14.599 58.2507 14.4993C58.151 14.3997 58.0159 14.3438 57.875 14.3438H11.125C10.9841 14.3438 10.849 14.3997 10.7493 14.4993C10.6497 14.599 10.5938 14.7341 10.5938 14.875V48.875C10.5938 49.0159 10.6497 49.151 10.7493 49.2507C10.849 49.3503 10.9841 49.4062 11.125 49.4062H43.5312ZM58.4062 44.8614C56.5877 45.7545 54.5886 46.2188 52.5625 46.2188C50.5364 46.2188 48.5373 45.7545 46.7188 44.8614V56.7534L51.7656 53.8661C52.0079 53.7262 52.2827 53.6526 52.5625 53.6526C52.8423 53.6526 53.1171 53.7262 53.3594 53.8661L58.4062 56.7534V44.8614Z" fill="#3C210E"/>
</svg>
