<svg width="12" height="12" viewBox="0 0 12 12" fill="none" xmlns="http://www.w3.org/2000/svg">
<path d="M9.64052 9.10965C9.67536 9.14449 9.703 9.18586 9.72186 9.23138C9.74071 9.2769 9.75042 9.32569 9.75042 9.37496C9.75042 9.42424 9.74071 9.47303 9.72186 9.51855C9.703 9.56407 9.67536 9.60544 9.64052 9.64028C9.60568 9.67512 9.56432 9.70276 9.51879 9.72161C9.47327 9.74047 9.42448 9.75017 9.37521 9.75017C9.32594 9.75017 9.27714 9.74047 9.23162 9.72161C9.1861 9.70276 9.14474 9.67512 9.1099 9.64028L6.00021 6.53012L2.89052 9.64028C2.82016 9.71064 2.72472 9.75017 2.62521 9.75017C2.5257 9.75017 2.43026 9.71064 2.3599 9.64028C2.28953 9.56991 2.25 9.47448 2.25 9.37496C2.25 9.27545 2.28953 9.18002 2.3599 9.10965L5.47005 5.99996L2.3599 2.89028C2.28953 2.81991 2.25 2.72448 2.25 2.62496C2.25 2.52545 2.28953 2.43002 2.3599 2.35965C2.43026 2.28929 2.5257 2.24976 2.62521 2.24976C2.72472 2.24976 2.82016 2.28929 2.89052 2.35965L6.00021 5.46981L9.1099 2.35965C9.18026 2.28929 9.2757 2.24976 9.37521 2.24976C9.47472 2.24976 9.57016 2.28929 9.64052 2.35965C9.71089 2.43002 9.75042 2.52545 9.75042 2.62496C9.75042 2.72448 9.71089 2.81991 9.64052 2.89028L6.53036 5.99996L9.64052 9.10965Z" fill="#3C210E"/>
</svg>
