<svg width="20" height="20" viewBox="0 0 20 20" fill="none" xmlns="http://www.w3.org/2000/svg">
<path d="M17.5 3.90625H2.5C2.37568 3.90625 2.25645 3.95564 2.16854 4.04354C2.08064 4.13145 2.03125 4.25068 2.03125 4.375V15C2.03125 15.2901 2.14648 15.5683 2.3516 15.7734C2.55672 15.9785 2.83492 16.0938 3.125 16.0938H16.875C17.1651 16.0938 17.4433 15.9785 17.6484 15.7734C17.8535 15.5683 17.9688 15.2901 17.9688 15V4.375C17.9688 4.25068 17.9194 4.13145 17.8315 4.04354C17.7435 3.95564 17.6243 3.90625 17.5 3.90625ZM10 10.6141L3.70469 4.84375H16.2953L10 10.6141ZM7.94297 10L2.96875 14.5594V5.44062L7.94297 10ZM8.63672 10.6359L9.6875 11.5953C9.77391 11.6744 9.88679 11.7182 10.0039 11.7182C10.121 11.7182 10.2339 11.6744 10.3203 11.5953L11.3672 10.6359L16.2953 15.1562H3.70547L8.63672 10.6359ZM12.057 10L17.0312 5.44062V14.5594L12.057 10Z" fill="#3C210E"/>
</svg>
