<svg width="12" height="12" viewBox="0 0 12 12" fill="none" xmlns="http://www.w3.org/2000/svg">
<path fill-rule="evenodd" clip-rule="evenodd" d="M3.33656 7.06568L1.40383 5.46573C1.03904 5.17401 1.19903 4.58737 1.66195 4.52123L4.40318 4.39911L5.57381 1.46428C5.6554 1.30162 5.82127 1.19922 6.00313 1.19922C6.18499 1.19922 6.35085 1.30215 6.43244 1.46428L7.60307 4.39911L10.3443 4.52123C10.8072 4.58737 10.9672 5.17401 10.6024 5.46573L8.66969 7.06568L9.19714 10.1893C9.25794 10.6154 8.81529 10.9343 8.43077 10.7418L6.00313 9.19894L3.57548 10.7413C3.19043 10.9338 2.74831 10.6149 2.80911 10.1888L3.33656 7.06568Z" fill="#F4D118"/>
</svg>
