<svg width="61" height="60" viewBox="0 0 61 60" fill="none" xmlns="http://www.w3.org/2000/svg">
<path d="M57.8775 28.7414C57.669 28.3748 57.3896 28.0534 57.0556 27.7958C56.7216 27.5383 56.3397 27.3498 55.9322 27.2414C54.0835 26.7687 52.1685 26.6102 50.2673 26.7726C51.3619 21.9375 50.647 18.1219 49.9275 15.8976C49.6764 15.1119 49.1417 14.4478 48.4276 14.0349C47.7135 13.622 46.8712 13.4898 46.065 13.664C43.5624 14.2253 41.1933 15.269 39.09 16.7367C37.6263 13.5525 35.4132 10.77 32.64 8.62733C32.071 8.19857 31.3779 7.96667 30.6654 7.96667C29.9529 7.96667 29.2598 8.19857 28.6908 8.62733C25.9191 10.771 23.707 13.5532 22.2431 16.7367C20.1393 15.2685 17.7692 14.2248 15.2658 13.664C14.4595 13.49 13.6173 13.6226 12.9036 14.036C12.1898 14.4494 11.6558 15.114 11.4056 15.9C10.6861 18.1242 9.97124 21.9398 11.0658 26.775C9.16456 26.6126 7.24958 26.7711 5.40093 27.2437C4.99337 27.3522 4.61147 27.5407 4.27749 27.7982C3.94351 28.0557 3.66412 28.3771 3.45561 28.7437C3.23648 29.1205 3.09461 29.5371 3.03827 29.9693C2.98193 30.4015 3.01226 30.8406 3.12749 31.2609C3.90327 34.139 6.29155 39.6094 13.5384 43.9476C20.7853 48.2859 27.2189 48.2812 30.6665 48.2812C34.1142 48.2812 40.5384 48.2812 47.79 43.9476C55.0415 39.614 57.4251 34.139 58.2009 31.2586C58.3168 30.8385 58.348 30.3996 58.2924 29.9675C58.2369 29.5353 58.0958 29.1185 57.8775 28.7414ZM40.154 19.4297C42.0837 17.9746 44.2994 16.9442 46.6556 16.4062C46.7808 16.3807 46.9109 16.4025 47.0209 16.4675C47.1309 16.5324 47.2129 16.6359 47.2509 16.7578C48.1744 19.6219 49.0814 25.5469 44.7689 33.0469C43.0378 36.0051 40.819 38.6494 38.2064 40.868C40.0064 37.7344 41.4478 33.4992 41.4478 27.9305C41.4697 25.0462 41.033 22.1768 40.154 19.4297ZM14.0822 16.7648C14.1188 16.6416 14.2002 16.5365 14.3103 16.4702C14.4205 16.4038 14.5514 16.381 14.6775 16.4062C17.0337 16.9442 19.2494 17.9746 21.1791 19.4297C20.3001 22.1768 19.8634 25.0462 19.8853 27.9305C19.8853 33.4992 21.3267 37.739 23.122 40.8609C20.5088 38.6429 18.29 35.9985 16.5595 33.0398C12.2517 25.5469 13.1587 19.6219 14.0822 16.7648ZM14.9822 41.5312C8.58374 37.7086 6.50952 32.9953 5.84155 30.5156C5.82403 30.4526 5.81936 30.3868 5.82782 30.3219C5.83628 30.2571 5.85768 30.1946 5.89077 30.1383C5.94166 30.0478 6.02568 29.9806 6.12514 29.9508C8.01932 29.4801 9.98877 29.3948 11.9166 29.7C12.5112 31.3466 13.2508 32.9372 14.1267 34.4531C16.5313 38.6028 19.8103 42.1793 23.7361 44.9344C20.6412 44.3218 17.6781 43.1699 14.9822 41.5312ZM30.6665 45.2015C28.6322 43.7484 22.6978 38.5922 22.6978 27.9305C22.6978 17.768 28.0744 12.6164 30.3853 10.8726C30.4664 10.8118 30.5651 10.7789 30.6665 10.7789C30.768 10.7789 30.8667 10.8118 30.9478 10.8726C33.2587 12.6164 38.6353 17.768 38.6353 27.9305C38.6353 38.6578 32.7314 43.7508 30.6665 45.2015ZM55.4869 30.525C54.8189 32.9953 52.7447 37.7086 46.3462 41.5406C43.6473 43.176 40.6819 44.3239 37.5853 44.932C41.511 42.177 44.7901 38.6004 47.1947 34.4508C48.0745 32.9361 48.818 31.3462 49.4165 29.7C51.3465 29.3972 53.3176 29.4857 55.2126 29.9601C55.3121 29.9899 55.3961 30.0571 55.447 30.1476C55.4793 30.2044 55.4999 30.267 55.5076 30.3318C55.5152 30.3966 55.5098 30.4623 55.4915 30.525H55.4869Z" fill="#3C210E"/>
</svg>
