<svg width="24" height="24" viewBox="0 0 24 24" fill="none" xmlns="http://www.w3.org/2000/svg">
<path d="M10.5 14.2504C10.3011 14.2504 10.1103 14.3295 9.96968 14.4701C9.82903 14.6108 9.75001 14.8015 9.75001 15.0004V17.6901L7.09876 15.0379C6.7493 14.6907 6.47224 14.2776 6.28364 13.8224C6.09503 13.3673 5.99862 12.8793 6.00001 12.3867V8.90669C6.707 8.72415 7.32315 8.29002 7.73296 7.68568C8.14277 7.08135 8.3181 6.3483 8.2261 5.62394C8.13409 4.89958 7.78106 4.23364 7.23318 3.75095C6.6853 3.26826 5.98019 3.00195 5.25001 3.00195C4.51983 3.00195 3.81471 3.26826 3.26683 3.75095C2.71895 4.23364 2.36592 4.89958 2.27392 5.62394C2.18191 6.3483 2.35725 7.08135 2.76706 7.68568C3.17687 8.29002 3.79301 8.72415 4.50001 8.90669V12.3876C4.49826 13.0773 4.63324 13.7606 4.89715 14.3978C5.16105 15.035 5.54864 15.6136 6.03751 16.1001L8.6897 18.7504H6.00001C5.8011 18.7504 5.61033 18.8295 5.46968 18.9701C5.32903 19.1108 5.25001 19.3015 5.25001 19.5004C5.25001 19.6994 5.32903 19.8901 5.46968 20.0308C5.61033 20.1714 5.8011 20.2504 6.00001 20.2504H10.5C10.6989 20.2504 10.8897 20.1714 11.0303 20.0308C11.171 19.8901 11.25 19.6994 11.25 19.5004V15.0004C11.25 14.8015 11.171 14.6108 11.0303 14.4701C10.8897 14.3295 10.6989 14.2504 10.5 14.2504ZM3.75001 6.00044C3.75001 5.70377 3.83798 5.41376 4.0028 5.16709C4.16763 4.92041 4.40189 4.72815 4.67598 4.61462C4.95007 4.50109 5.25167 4.47138 5.54264 4.52926C5.83361 4.58714 6.10089 4.73 6.31067 4.93978C6.52045 5.14956 6.66331 5.41683 6.72119 5.70781C6.77906 5.99878 6.74936 6.30038 6.63583 6.57447C6.5223 6.84855 6.33004 7.08282 6.08336 7.24764C5.83669 7.41247 5.54668 7.50044 5.25001 7.50044C4.85218 7.50044 4.47065 7.3424 4.18935 7.0611C3.90804 6.7798 3.75001 6.39827 3.75001 6.00044ZM19.5 15.0942V11.6142C19.5018 10.9245 19.3668 10.2413 19.1029 9.60404C18.839 8.96681 18.4514 8.38822 17.9625 7.90169L15.3103 5.25044H18C18.1989 5.25044 18.3897 5.17142 18.5303 5.03077C18.671 4.89012 18.75 4.69935 18.75 4.50044C18.75 4.30153 18.671 4.11076 18.5303 3.97011C18.3897 3.82946 18.1989 3.75044 18 3.75044H13.5C13.3011 3.75044 13.1103 3.82946 12.9697 3.97011C12.829 4.11076 12.75 4.30153 12.75 4.50044V9.00044C12.75 9.19935 12.829 9.39012 12.9697 9.53077C13.1103 9.67142 13.3011 9.75044 13.5 9.75044C13.6989 9.75044 13.8897 9.67142 14.0303 9.53077C14.171 9.39012 14.25 9.19935 14.25 9.00044V6.31075L16.9013 8.96294C17.2507 9.31018 17.5278 9.72333 17.7164 10.1784C17.905 10.6335 18.0014 11.1216 18 11.6142V15.0942C17.293 15.2767 16.6769 15.7109 16.2671 16.3152C15.8572 16.9195 15.6819 17.6526 15.7739 18.3769C15.8659 19.1013 16.219 19.7672 16.7668 20.2499C17.3147 20.7326 18.0198 20.9989 18.75 20.9989C19.4802 20.9989 20.1853 20.7326 20.7332 20.2499C21.2811 19.7672 21.6341 19.1013 21.7261 18.3769C21.8181 17.6526 21.6428 16.9195 21.233 16.3152C20.8232 15.7109 20.207 15.2767 19.5 15.0942ZM18.75 19.5004C18.4533 19.5004 18.1633 19.4125 17.9167 19.2476C17.67 19.0828 17.4777 18.8486 17.3642 18.5745C17.2507 18.3004 17.221 17.9988 17.2788 17.7078C17.3367 17.4168 17.4796 17.1496 17.6893 16.9398C17.8991 16.73 18.1664 16.5871 18.4574 16.5293C18.7483 16.4714 19.0499 16.5011 19.324 16.6146C19.5981 16.7282 19.8324 16.9204 19.9972 17.1671C20.162 17.4138 20.25 17.7038 20.25 18.0004C20.25 18.3983 20.092 18.7798 19.8107 19.0611C19.5294 19.3424 19.1478 19.5004 18.75 19.5004Z" fill="#3C210E"/>
</svg>
