<svg width="36" height="36" viewBox="0 0 36 36" fill="none" xmlns="http://www.w3.org/2000/svg">
<g clip-path="url(#clip0_10983_2450)">
<path d="M32.3902 19.8366C32.0223 19.5531 31.6005 19.3474 31.1506 19.2321C30.7007 19.1167 30.232 19.0942 29.7731 19.1658C32.4141 16.4995 33.75 13.8488 33.75 11.25C33.75 7.52767 30.7561 4.50001 27.0759 4.50001C26.0994 4.49388 25.1335 4.70156 24.2458 5.10848C23.3581 5.51539 22.5702 6.11168 21.9375 6.85548C21.3048 6.11168 20.5169 5.51539 19.6292 5.10848C18.7415 4.70156 17.7756 4.49388 16.7991 4.50001C13.1189 4.50001 10.125 7.52767 10.125 11.25C10.125 12.7969 10.5806 14.3002 11.5397 15.8906C10.7542 16.0896 10.0374 16.4979 9.46547 17.0719L6.28453 20.25H2.25C1.65326 20.25 1.08097 20.4871 0.65901 20.909C0.237053 21.331 0 21.9033 0 22.5L0 28.125C0 28.7217 0.237053 29.294 0.65901 29.716C1.08097 30.138 1.65326 30.375 2.25 30.375H16.875C16.967 30.375 17.0586 30.3637 17.1478 30.3413L26.1478 28.0913C26.2052 28.0776 26.2612 28.0588 26.3152 28.035L31.7812 25.7091L31.8431 25.6809C32.3685 25.4184 32.8183 25.0265 33.1503 24.5421C33.4823 24.0577 33.6855 23.4967 33.7408 22.9121C33.7961 22.3274 33.7016 21.7383 33.4663 21.2003C33.231 20.6622 32.8626 20.1929 32.3958 19.8366H32.3902ZM16.7991 6.75001C17.6704 6.73726 18.5257 6.98468 19.2557 7.46063C19.9857 7.93659 20.5571 8.61944 20.8969 9.42188C20.9816 9.62822 21.1258 9.8047 21.3111 9.92891C21.4964 10.0531 21.7144 10.1194 21.9375 10.1194C22.1606 10.1194 22.3786 10.0531 22.5639 9.92891C22.7492 9.8047 22.8934 9.62822 22.9781 9.42188C23.3179 8.61944 23.8893 7.93659 24.6193 7.46063C25.3493 6.98468 26.2046 6.73726 27.0759 6.75001C29.4736 6.75001 31.5 8.81017 31.5 11.25C31.5 13.9936 29.2795 17.0972 25.0791 20.2359L23.5195 20.5945C23.6564 20.0163 23.6606 19.4145 23.5319 18.8344C23.4031 18.2543 23.1448 17.7108 22.7761 17.2448C22.4074 16.7787 21.9381 16.4021 21.4032 16.1432C20.8683 15.8844 20.2817 15.7499 19.6875 15.75H14.1581C12.9445 14.1131 12.375 12.6731 12.375 11.25C12.375 8.81017 14.4014 6.75001 16.7991 6.75001ZM2.25 22.5H5.625V28.125H2.25V22.5ZM30.8573 23.6545L25.5136 25.9298L16.7344 28.125H7.875V21.8405L11.0573 18.6595C11.2655 18.4497 11.5133 18.2833 11.7864 18.1701C12.0594 18.0569 12.3522 17.9991 12.6478 18H19.6875C20.1351 18 20.5643 18.1778 20.8807 18.4943C21.1972 18.8107 21.375 19.24 21.375 19.6875C21.375 20.1351 21.1972 20.5643 20.8807 20.8808C20.5643 21.1972 20.1351 21.375 19.6875 21.375H15.75C15.4516 21.375 15.1655 21.4935 14.9545 21.7045C14.7435 21.9155 14.625 22.2016 14.625 22.5C14.625 22.7984 14.7435 23.0845 14.9545 23.2955C15.1655 23.5065 15.4516 23.625 15.75 23.625H20.25C20.3347 23.6248 20.4191 23.6153 20.5017 23.5969L29.9236 21.4299L29.9672 21.4186C30.2548 21.3388 30.5618 21.3681 30.8291 21.501C31.0964 21.6339 31.3051 21.8609 31.415 22.1384C31.525 22.4159 31.5284 22.7243 31.4247 23.0042C31.321 23.2841 31.1174 23.5157 30.8531 23.6545H30.8573Z" fill="#3C210E"/>
</g>
<defs>
<clipPath id="clip0_10983_2450">
<rect width="36" height="36" fill="white"/>
</clipPath>
</defs>
</svg>
