<svg width="60" height="60" viewBox="0 0 60 60" fill="none" xmlns="http://www.w3.org/2000/svg">
<path d="M30 6.09375C25.2718 6.09375 20.6498 7.49583 16.7184 10.1227C12.787 12.7495 9.72292 16.4832 7.91352 20.8515C6.10411 25.2198 5.63068 30.0265 6.55311 34.6639C7.47554 39.3012 9.75239 43.5609 13.0957 46.9043C16.4391 50.2476 20.6988 52.5245 25.3361 53.4469C29.9735 54.3693 34.7802 53.8959 39.1485 52.0865C43.5168 50.2771 47.2505 47.213 49.8773 43.2816C52.5042 39.3502 53.9063 34.7282 53.9063 30C53.8988 23.662 51.3777 17.5856 46.8961 13.1039C42.4144 8.62227 36.3381 6.10119 30 6.09375ZM38.5477 36.5625C39.997 34.6819 40.783 32.3743 40.783 30C40.783 27.6257 39.997 25.3181 38.5477 23.4375L45.8695 16.118C49.2372 19.9575 51.094 24.8905 51.094 29.9977C51.094 35.1048 49.2372 40.0378 45.8695 43.8773L38.5477 36.5625ZM22.0313 30C22.0313 28.4239 22.4986 26.8833 23.3742 25.5728C24.2499 24.2623 25.4944 23.241 26.9505 22.6378C28.4066 22.0347 30.0089 21.8769 31.5546 22.1844C33.1004 22.4918 34.5203 23.2508 35.6348 24.3652C36.7492 25.4797 37.5082 26.8996 37.8156 28.4454C38.1231 29.9912 37.9653 31.5934 37.3622 33.0495C36.759 34.5056 35.7377 35.7502 34.4272 36.6258C33.1168 37.5014 31.5761 37.9687 30 37.9687C27.8866 37.9687 25.8597 37.1292 24.3653 35.6348C22.8708 34.1403 22.0313 32.1134 22.0313 30ZM43.8797 14.1305L36.5625 21.4523C34.6819 20.003 32.3743 19.217 30 19.217C27.6257 19.217 25.3182 20.003 23.4375 21.4523L16.1203 14.1305C19.9599 10.7628 24.8928 8.90604 30 8.90604C35.1072 8.90604 40.0401 10.7628 43.8797 14.1305ZM14.1305 16.1203L21.4524 23.4375C20.003 25.3181 19.217 27.6257 19.217 30C19.217 32.3743 20.003 34.6819 21.4524 36.5625L14.1305 43.8797C10.7629 40.0401 8.90605 35.1072 8.90605 30C8.90605 24.8928 10.7629 19.9599 14.1305 16.1203ZM16.1203 45.8695L23.4375 38.5477C25.3182 39.997 27.6257 40.783 30 40.783C32.3743 40.783 34.6819 39.997 36.5625 38.5477L43.882 45.8695C40.0425 49.2372 35.1095 51.094 30.0024 51.094C24.8952 51.094 19.9622 49.2372 16.1227 45.8695H16.1203Z" fill="#3C210E"/>
</svg>
