<svg width="21" height="20" viewBox="0 0 21 20" fill="none" xmlns="http://www.w3.org/2000/svg">
<path d="M17.106 9.80077L8.35603 19.1758C8.26331 19.2747 8.14091 19.3408 8.00731 19.3641C7.87372 19.3874 7.73617 19.3666 7.61543 19.3049C7.49468 19.2432 7.3973 19.1438 7.33796 19.0219C7.27863 18.8999 7.26057 18.762 7.2865 18.6289L8.43181 12.9L3.92947 11.2094C3.83277 11.1732 3.74655 11.1136 3.67849 11.036C3.61043 10.9584 3.56266 10.8651 3.53944 10.7645C3.51623 10.6639 3.5183 10.5591 3.54546 10.4595C3.57262 10.3599 3.62403 10.2686 3.69509 10.1937L12.4451 0.818744C12.5378 0.719788 12.6602 0.653675 12.7938 0.630383C12.9274 0.60709 13.065 0.627882 13.1857 0.68962C13.3064 0.751359 13.4038 0.850694 13.4632 0.972636C13.5225 1.09458 13.5406 1.23251 13.5146 1.36562L12.3662 7.10077L16.8685 8.78906C16.9645 8.82547 17.05 8.88496 17.1176 8.96228C17.1851 9.0396 17.2326 9.13236 17.2557 9.23237C17.2789 9.33237 17.2771 9.43655 17.2504 9.53569C17.2238 9.63482 17.1731 9.72587 17.1029 9.80077H17.106Z" fill="#C72929"/>
</svg>
