<svg width="61" height="60" viewBox="0 0 61 60" fill="none" xmlns="http://www.w3.org/2000/svg">
<path d="M52.3647 30C52.3647 30.3729 52.2165 30.7306 51.9528 30.9944C51.6891 31.2581 51.3314 31.4062 50.9584 31.4062H30.3334C29.9605 31.4062 29.6028 31.2581 29.3391 30.9944C29.0753 30.7306 28.9272 30.3729 28.9272 30C28.9272 29.627 29.0753 29.2693 29.3391 29.0056C29.6028 28.7419 29.9605 28.5937 30.3334 28.5937H50.9584C51.3314 28.5937 51.6891 28.7419 51.9528 29.0056C52.2165 29.2693 52.3647 29.627 52.3647 30ZM30.3334 16.4062H50.9584C51.3314 16.4062 51.6891 16.2581 51.9528 15.9944C52.2165 15.7306 52.3647 15.3729 52.3647 15C52.3647 14.627 52.2165 14.2693 51.9528 14.0056C51.6891 13.7419 51.3314 13.5937 50.9584 13.5937H30.3334C29.9605 13.5937 29.6028 13.7419 29.3391 14.0056C29.0753 14.2693 28.9272 14.627 28.9272 15C28.9272 15.3729 29.0753 15.7306 29.3391 15.9944C29.6028 16.2581 29.9605 16.4062 30.3334 16.4062ZM50.9584 43.5937H30.3334C29.9605 43.5937 29.6028 43.7419 29.3391 44.0056C29.0753 44.2693 28.9272 44.627 28.9272 45C28.9272 45.3729 29.0753 45.7306 29.3391 45.9944C29.6028 46.2581 29.9605 46.4062 30.3334 46.4062H50.9584C51.3314 46.4062 51.6891 46.2581 51.9528 45.9944C52.2165 45.7306 52.3647 45.3729 52.3647 45C52.3647 44.627 52.2165 44.2693 51.9528 44.0056C51.6891 43.7419 51.3314 43.5937 50.9584 43.5937ZM19.9647 10.2562L13.4584 16.7601L10.7022 14.0062C10.4356 13.7578 10.083 13.6226 9.71869 13.629C9.35437 13.6355 9.00678 13.783 8.74913 14.0407C8.49148 14.2983 8.34389 14.6459 8.33746 15.0103C8.33104 15.3746 8.46627 15.7272 8.71467 15.9937L12.4647 19.7437C12.7283 20.0071 13.0858 20.155 13.4584 20.155C13.8311 20.155 14.1885 20.0071 14.4522 19.7437L21.9522 12.2437C22.2006 11.9772 22.3358 11.6246 22.3294 11.2603C22.3229 10.8959 22.1754 10.5483 21.9177 10.2907C21.6601 10.033 21.3125 9.88546 20.9481 9.87903C20.5838 9.87261 20.2312 10.0078 19.9647 10.2562ZM19.9647 25.2562L13.4584 31.7601L10.7022 29.0062C10.5734 28.8681 10.4182 28.7573 10.2457 28.6804C10.0732 28.6035 9.88697 28.5622 9.69815 28.5589C9.50933 28.5555 9.32177 28.5903 9.14667 28.661C8.97157 28.7317 8.81251 28.837 8.67897 28.9705C8.54544 29.1041 8.44016 29.2631 8.36944 29.4382C8.29871 29.6133 8.26398 29.8009 8.26731 29.9897C8.27064 30.1785 8.31197 30.3647 8.38883 30.5372C8.46569 30.7097 8.5765 30.865 8.71467 30.9937L12.4647 34.7437C12.7283 35.0071 13.0858 35.155 13.4584 35.155C13.8311 35.155 14.1885 35.0071 14.4522 34.7437L21.9522 27.2437C22.2006 26.9772 22.3358 26.6246 22.3294 26.2603C22.3229 25.8959 22.1754 25.5483 21.9177 25.2907C21.6601 25.033 21.3125 24.8855 20.9481 24.879C20.5838 24.8726 20.2312 25.0078 19.9647 25.2562ZM19.9647 40.2562L13.4584 46.7601L10.7022 44.0062C10.4356 43.7578 10.083 43.6226 9.71869 43.629C9.35437 43.6355 9.00678 43.783 8.74913 44.0407C8.49148 44.2983 8.34389 44.6459 8.33746 45.0103C8.33104 45.3746 8.46627 45.7272 8.71467 45.9937L12.4647 49.7437C12.7283 50.0071 13.0858 50.155 13.4584 50.155C13.8311 50.155 14.1885 50.0071 14.4522 49.7437L21.9522 42.2437C22.2006 41.9772 22.3358 41.6246 22.3294 41.2603C22.3229 40.8959 22.1754 40.5483 21.9177 40.2907C21.6601 40.033 21.3125 39.8855 20.9481 39.879C20.5838 39.8726 20.2312 40.0078 19.9647 40.2562Z" fill="#3C210E"/>
</svg>
