<svg width="24" height="24" viewBox="0 0 24 24" fill="none" xmlns="http://www.w3.org/2000/svg">
<path d="M21.3982 20.6023L16.5814 15.7854C17.955 14.2057 18.6616 12.1545 18.5523 10.064C18.4429 7.9735 17.5262 6.00712 15.9954 4.57934C14.4645 3.15157 12.4391 2.37395 10.3461 2.41041C8.25305 2.44686 6.25594 3.29454 4.77573 4.77475C3.29551 6.25497 2.44784 8.25208 2.41138 10.3451C2.37493 12.4381 3.15255 14.4635 4.58032 15.9944C6.00809 17.5253 7.97447 18.442 10.065 18.5513C12.1554 18.6606 14.2067 17.954 15.7864 16.5804L20.6032 21.3973C20.7099 21.4966 20.8509 21.5507 20.9966 21.5481C21.1424 21.5456 21.2814 21.4865 21.3845 21.3835C21.4875 21.2804 21.5465 21.1414 21.5491 20.9957C21.5517 20.8499 21.4976 20.7089 21.3982 20.6023ZM3.56324 10.4998C3.56324 9.12765 3.97011 7.78636 4.73242 6.64549C5.49472 5.50463 6.57821 4.61543 7.84587 4.09035C9.11353 3.56526 10.5084 3.42788 11.8542 3.69556C13.1999 3.96325 14.4361 4.62398 15.4063 5.59421C16.3765 6.56443 17.0372 7.80058 17.3049 9.14632C17.5726 10.4921 17.4352 11.887 16.9101 13.1546C16.3851 14.4223 15.4959 15.5058 14.355 16.2681C13.2141 17.0304 11.8728 17.4373 10.5007 17.4373C8.66148 17.435 6.8982 16.7034 5.59765 15.4028C4.2971 14.1023 3.56547 12.339 3.56324 10.4998Z" fill="#3C210E"/>
</svg>
