<svg width="20" height="20" viewBox="0 0 20 20" fill="none" xmlns="http://www.w3.org/2000/svg">
<path d="M10 5.15625C9.41284 5.15625 8.83886 5.33036 8.35065 5.65657C7.86244 5.98278 7.48193 6.44644 7.25723 6.98891C7.03254 7.53138 6.97374 8.12829 7.08829 8.70417C7.20284 9.28006 7.48559 9.80904 7.90078 10.2242C8.31596 10.6394 8.84494 10.9222 9.42083 11.0367C9.99671 11.1513 10.5936 11.0925 11.1361 10.8678C11.6786 10.6431 12.1422 10.2626 12.4684 9.77435C12.7946 9.28614 12.9688 8.71216 12.9688 8.125C12.9688 7.33764 12.656 6.58253 12.0992 6.02578C11.5425 5.46903 10.7874 5.15625 10 5.15625ZM10 10.1562C9.59826 10.1562 9.20554 10.0371 8.8715 9.81392C8.53746 9.59073 8.27711 9.27349 8.12337 8.90233C7.96963 8.53116 7.9294 8.12275 8.00778 7.72872C8.08616 7.3347 8.27961 6.97276 8.56369 6.68869C8.84776 6.40461 9.2097 6.21116 9.60372 6.13278C9.99775 6.0544 10.4062 6.09463 10.7773 6.24837C11.1485 6.40211 11.4657 6.66246 11.6889 6.9965C11.9121 7.33054 12.0312 7.72326 12.0312 8.125C12.0312 8.66372 11.8172 9.18038 11.4363 9.56131C11.0554 9.94224 10.5387 10.1562 10 10.1562ZM10 1.40625C8.21871 1.40832 6.51097 2.11685 5.25141 3.37641C3.99185 4.63597 3.28332 6.34371 3.28125 8.125C3.28125 10.5398 4.40156 13.1047 6.52109 15.5422C7.47774 16.6478 8.55442 17.6435 9.73125 18.5109C9.81003 18.5661 9.90385 18.5956 10 18.5956C10.0961 18.5956 10.19 18.5661 10.2688 18.5109C11.4456 17.6435 12.5223 16.6478 13.4789 15.5422C15.5984 13.1047 16.7188 10.5422 16.7188 8.125C16.7167 6.34371 16.0082 4.63597 14.7486 3.37641C13.489 2.11685 11.7813 1.40832 10 1.40625ZM10 17.5398C8.82812 16.6352 4.21875 12.7828 4.21875 8.125C4.21875 6.59172 4.82784 5.12123 5.91204 4.03704C6.99623 2.95284 8.46672 2.34375 10 2.34375C11.5333 2.34375 13.0038 2.95284 14.088 4.03704C15.1722 5.12123 15.7812 6.59172 15.7812 8.125C15.7812 12.7828 11.1719 16.6352 10 17.5398Z" fill="#3C210E"/>
</svg>
