<svg width="28" height="28" viewBox="0 0 28 28" fill="none" xmlns="http://www.w3.org/2000/svg">
<path d="M24.8611 3.13692C24.641 2.917 24.3663 2.75973 24.0653 2.68129C23.7642 2.60285 23.4477 2.60609 23.1483 2.69067H23.1319L2.13843 9.06067C1.79761 9.15889 1.49468 9.35836 1.26979 9.63264C1.0449 9.90692 0.908659 10.2431 0.879125 10.5965C0.849591 10.95 0.928158 11.3041 1.10441 11.6119C1.28067 11.9197 1.54629 12.1666 1.86608 12.32L11.1542 16.8438L15.6714 26.1265C15.8119 26.4263 16.0353 26.6796 16.3151 26.8566C16.595 27.0335 16.9197 27.1267 17.2508 27.125C17.3011 27.125 17.3514 27.1229 17.4017 27.1185C17.7549 27.0899 18.0909 26.954 18.3646 26.7289C18.6383 26.5039 18.8366 26.2006 18.933 25.8596L25.2986 4.86614C25.2986 4.86067 25.2986 4.8552 25.2986 4.84973C25.3843 4.5511 25.3889 4.23504 25.312 3.93402C25.2351 3.63301 25.0795 3.35788 24.8611 3.13692ZM17.2606 25.3586L17.2551 25.374V25.3663L12.8736 16.3647L18.1236 11.1147C18.2807 10.9493 18.3671 10.729 18.3642 10.5009C18.3612 10.2727 18.2693 10.0547 18.1079 9.89334C17.9466 9.73199 17.7286 9.64005 17.5004 9.63713C17.2723 9.63421 17.052 9.72053 16.8865 9.8777L11.6365 15.1277L2.63171 10.7461H2.62405H2.63936L23.623 4.37505L17.2606 25.3586Z" fill="#3C210E"/>
</svg>
