<svg width="20" height="20" viewBox="0 0 20 20" fill="none" xmlns="http://www.w3.org/2000/svg">
<path d="M12.0469 3.0033C12.0628 2.94378 12.0902 2.88796 12.1277 2.83906C12.1651 2.79015 12.2118 2.7491 12.2652 2.71826C12.3185 2.68743 12.3774 2.6674 12.4385 2.65934C12.4995 2.65128 12.5616 2.65533 12.6211 2.67127C13.7533 2.9666 14.7863 3.55843 15.6136 4.38579C16.441 5.21315 17.0328 6.24612 17.3281 7.3783C17.3441 7.43781 17.3481 7.49987 17.3401 7.56095C17.332 7.62202 17.312 7.6809 17.2811 7.73423C17.2503 7.78756 17.2093 7.83429 17.1603 7.87175C17.1114 7.9092 17.0556 7.93665 16.9961 7.95252C16.9566 7.96304 16.9159 7.96829 16.875 7.96815C16.7717 7.96821 16.6713 7.93416 16.5894 7.87129C16.5074 7.80843 16.4486 7.72026 16.4219 7.62049C16.1683 6.64798 15.66 5.76067 14.9494 5.05002C14.2387 4.33936 13.3514 3.83107 12.3789 3.57752C12.3194 3.56165 12.2636 3.5342 12.2147 3.49675C12.1658 3.45929 12.1247 3.41256 12.0939 3.35923C12.063 3.3059 12.043 3.24702 12.035 3.18595C12.0269 3.12487 12.0309 3.06281 12.0469 3.0033ZM11.7539 6.07752C12.8906 6.38065 13.6188 7.10877 13.9219 8.24549C13.9486 8.34526 14.0074 8.43343 14.0894 8.49629C14.1713 8.55916 14.2717 8.59321 14.375 8.59315C14.4159 8.59329 14.4566 8.58804 14.4961 8.57752C14.5556 8.56165 14.6114 8.5342 14.6603 8.49675C14.7093 8.45929 14.7503 8.41256 14.7811 8.35923C14.812 8.3059 14.832 8.24702 14.8401 8.18595C14.8481 8.12487 14.8441 8.06281 14.8281 8.0033C14.4375 6.54158 13.4578 5.5619 11.9961 5.17127C11.9366 5.15537 11.8745 5.15134 11.8135 5.15942C11.7524 5.1675 11.6935 5.18753 11.6402 5.21836C11.5325 5.28063 11.454 5.38313 11.4219 5.5033C11.3898 5.62348 11.4067 5.75149 11.469 5.85918C11.5312 5.96686 11.6337 6.0454 11.7539 6.07752ZM17.9602 13.6556C17.8263 14.6769 17.3251 15.6145 16.5503 16.2931C15.7755 16.9718 14.78 17.345 13.75 17.3431C7.63282 17.3431 2.65626 12.3666 2.65626 6.2494C2.65428 5.21974 3.02721 4.22458 3.70538 3.4498C4.38354 2.67502 5.32056 2.17361 6.34141 2.03924C6.57641 2.01068 6.81433 2.05914 7.01944 2.17733C7.22456 2.29552 7.38578 2.47707 7.47891 2.69471L9.12735 6.3744C9.20014 6.54098 9.23025 6.72308 9.21497 6.90423C9.1997 7.08537 9.13951 7.25985 9.03985 7.4119C9.0298 7.42737 9.01884 7.44224 9.00704 7.45643L7.36095 9.41424C7.35095 9.43453 7.34575 9.45685 7.34575 9.47947C7.34575 9.5021 7.35095 9.52441 7.36095 9.54471C7.95938 10.7697 9.24376 12.0447 10.4859 12.6424C10.5067 12.6518 10.5293 12.6563 10.5521 12.6555C10.5749 12.6547 10.5972 12.6486 10.6172 12.6377L12.5461 10.9971C12.5599 10.9851 12.5745 10.9741 12.5899 10.9642C12.7412 10.8633 12.9154 10.8018 13.0965 10.7851C13.2777 10.7685 13.4601 10.7973 13.6274 10.8689L17.318 12.5228C17.5327 12.618 17.7111 12.7798 17.8268 12.9842C17.9424 13.1887 17.9892 13.4249 17.9602 13.658V13.6556ZM17.0313 13.54C17.0339 13.5074 17.0262 13.4747 17.0092 13.4466C16.9922 13.4186 16.9669 13.3966 16.9367 13.3838L13.2453 11.7299C13.2252 11.7221 13.2035 11.7188 13.182 11.7201C13.1604 11.7214 13.1394 11.7274 13.1203 11.7377L11.1922 13.3783C11.1781 13.39 11.1633 13.401 11.1484 13.4111C10.9912 13.516 10.8094 13.5783 10.6209 13.592C10.4323 13.6057 10.2434 13.5703 10.0727 13.4892C8.63829 12.7963 7.2086 11.3799 6.51563 9.95877C6.43413 9.78898 6.39785 9.60103 6.4103 9.41311C6.42276 9.22518 6.48353 9.04366 6.58673 8.88611C6.59679 8.87045 6.60802 8.85556 6.62032 8.84158L8.26563 6.88377C8.27503 6.86331 8.2799 6.84106 8.2799 6.81854C8.2799 6.79602 8.27503 6.77376 8.26563 6.7533L6.62032 3.07049C6.60946 3.04093 6.58993 3.01535 6.56428 2.99708C6.53862 2.97882 6.50805 2.96873 6.47657 2.96815H6.4586C5.66403 3.07384 4.93508 3.46513 4.40789 4.06895C3.8807 4.67277 3.59131 5.44782 3.59376 6.2494C3.59376 11.8494 8.15001 16.4056 13.75 16.4056C14.5517 16.4081 15.3269 16.1186 15.9307 15.5912C16.5345 15.0639 16.9257 14.3347 17.0313 13.54Z" fill="#3C210E"/>
</svg>
