<svg width="20" height="20" viewBox="0 0 20 20" fill="none" xmlns="http://www.w3.org/2000/svg">
<path d="M13.7526 12.5005C13.3357 12.5004 12.923 12.5839 12.5389 12.7462C12.1549 12.9084 11.8073 13.1461 11.5167 13.4451L7.91513 11.1302C8.19843 10.4038 8.19843 9.59734 7.91513 8.87086L11.5167 6.55602C12.0577 7.11017 12.7851 7.44372 13.5581 7.49198C14.331 7.54024 15.0943 7.29978 15.7 6.81723C16.3057 6.33467 16.7107 5.64439 16.8364 4.88023C16.9621 4.11606 16.7995 3.33245 16.3803 2.68131C15.9611 2.03017 15.315 1.5579 14.5673 1.35606C13.8196 1.15421 13.0236 1.23718 12.3337 1.58887C11.6437 1.94057 11.1089 2.53592 10.8329 3.25953C10.557 3.98313 10.5596 4.78342 10.8401 5.50524L7.23857 7.82008C6.80487 7.37483 6.24824 7.06902 5.63985 6.94175C5.03145 6.81449 4.39892 6.87154 3.82312 7.10563C3.24731 7.33971 2.7544 7.74019 2.40738 8.25586C2.06036 8.77154 1.875 9.37898 1.875 10.0005C1.875 10.6221 2.06036 11.2296 2.40738 11.7452C2.7544 12.2609 3.24731 12.6614 3.82312 12.8955C4.39892 13.1296 5.03145 13.1866 5.63985 13.0593C6.24824 12.9321 6.80487 12.6263 7.23857 12.181L10.8401 14.4959C10.5989 15.1181 10.5632 15.8013 10.7382 16.4454C10.9133 17.0894 11.29 17.6605 11.8132 18.075C12.3363 18.4894 12.9784 18.7255 13.6454 18.7487C14.3124 18.7718 14.9694 18.5808 15.52 18.2036C16.0706 17.8264 16.4859 17.2828 16.7053 16.6524C16.9246 16.0221 16.9363 15.338 16.7387 14.7005C16.5412 14.063 16.1447 13.5055 15.6074 13.1096C15.07 12.7137 14.4201 12.5003 13.7526 12.5005ZM13.7526 2.50055C14.1235 2.50055 14.486 2.61052 14.7943 2.81654C15.1027 3.02257 15.343 3.31541 15.4849 3.65802C15.6268 4.00063 15.6639 4.37763 15.5916 4.74134C15.5193 5.10506 15.3407 5.43915 15.0785 5.70137C14.8162 5.9636 14.4821 6.14217 14.1184 6.21452C13.7547 6.28687 13.3777 6.24974 13.0351 6.10782C12.6925 5.96591 12.3997 5.72559 12.1936 5.41724C11.9876 5.1089 11.8776 4.74639 11.8776 4.37555C11.8776 3.87827 12.0752 3.40135 12.4268 3.04972C12.7784 2.69809 13.2553 2.50055 13.7526 2.50055ZM5.00263 11.8755C4.63179 11.8755 4.26928 11.7656 3.96093 11.5596C3.65259 11.3535 3.41227 11.0607 3.27036 10.7181C3.12844 10.3755 3.09131 9.99847 3.16366 9.63475C3.236 9.27104 3.41458 8.93695 3.6768 8.67472C3.93903 8.4125 4.27312 8.23392 4.63683 8.16158C5.00055 8.08923 5.37755 8.12636 5.72016 8.26827C6.06277 8.41019 6.35561 8.65051 6.56163 8.95885C6.76766 9.2672 6.87763 9.62971 6.87763 10.0005C6.87763 10.4978 6.68008 10.9747 6.32845 11.3264C5.97682 11.678 5.49991 11.8755 5.00263 11.8755ZM13.7526 17.5005C13.3818 17.5005 13.0193 17.3906 12.7109 17.1846C12.4026 16.9785 12.1623 16.6857 12.0204 16.3431C11.8784 16.0005 11.8413 15.6235 11.9137 15.2598C11.986 14.896 12.1646 14.5619 12.4268 14.2997C12.689 14.0375 13.0231 13.8589 13.3868 13.7866C13.7505 13.7142 14.1275 13.7514 14.4702 13.8933C14.8128 14.0352 15.1056 14.2755 15.3116 14.5839C15.5177 14.8922 15.6276 15.2547 15.6276 15.6255C15.6276 16.1228 15.4301 16.5997 15.0785 16.9514C14.7268 17.303 14.2499 17.5005 13.7526 17.5005Z" fill="#3C210E"/>
</svg>
