<svg width="36" height="36" viewBox="0 0 36 36" fill="none" xmlns="http://www.w3.org/2000/svg">
<path d="M34.5951 13.8839L26.7201 4.88391C26.6148 4.76365 26.4851 4.66721 26.3396 4.60101C26.1941 4.53481 26.0362 4.50038 25.8764 4.5H10.1264C9.96653 4.50038 9.80861 4.53481 9.66312 4.60101C9.51763 4.66721 9.38792 4.76365 9.28262 4.88391L1.40762 13.8839C1.22391 14.0937 1.12463 14.3642 1.12905 14.643C1.13346 14.9218 1.24126 15.189 1.43153 15.3928L17.1815 32.2678C17.2868 32.3807 17.4141 32.4706 17.5557 32.5322C17.6972 32.5937 17.8499 32.6254 18.0042 32.6254C18.1585 32.6254 18.3112 32.5937 18.4527 32.5322C18.5942 32.4706 18.7216 32.3807 18.8268 32.2678L34.5768 15.3928C34.7663 15.1883 34.8731 14.9207 34.8765 14.6419C34.8799 14.3631 34.7796 14.093 34.5951 13.8839ZM31.2722 13.5H25.3139L20.2514 6.75H25.3659L31.2722 13.5ZM10.4892 15.75L14.7262 26.3433L4.84028 15.75H10.4892ZM23.0892 15.75L18.0014 28.4709L12.9136 15.75H23.0892ZM13.5014 13.5L18.0014 7.49953L22.5014 13.5H13.5014ZM25.5136 15.75H31.1625L21.2765 26.3433L25.5136 15.75ZM10.6368 6.75H15.7514L10.6889 13.5H4.73059L10.6368 6.75Z" fill="#3C210E"/>
</svg>
