<svg width="20" height="20" viewBox="0 0 20 20" fill="none" xmlns="http://www.w3.org/2000/svg">
<g clip-path="url(#clip0_11089_897)">
<path d="M7.5 11.875C7.5 12.9102 8.61953 13.75 10 13.75C11.3805 13.75 12.5 12.9102 12.5 11.875C12.5 9.375 7.63906 10.3125 7.63906 8.125C7.63906 7.08984 8.61953 6.25 10 6.25C11.0352 6.25 11.8461 6.71875 12.1875 7.39531" stroke="white" stroke-width="1.5" stroke-linecap="round" stroke-linejoin="round"/>
<path d="M16.7185 11.4602C17.2734 12.1819 17.5469 13.0809 17.4877 13.9894C17.4286 14.8978 17.0411 15.7538 16.3973 16.3976C15.7536 17.0413 14.8976 17.4289 13.9891 17.488C13.0806 17.5471 12.1817 17.2737 11.4599 16.7188C10.3352 16.9619 9.16735 16.9191 8.06341 16.5941C6.95947 16.2692 5.95465 15.6726 5.14094 14.8589C4.32722 14.0452 3.7306 13.0403 3.40567 11.9364C3.08074 10.8325 3.03789 9.66466 3.28103 8.53987C2.72612 7.81813 2.45272 6.91917 2.51182 6.01069C2.57093 5.10221 2.95851 4.24626 3.60226 3.6025C4.24601 2.95875 5.10197 2.57117 6.01045 2.51207C6.91893 2.45296 7.81789 2.72636 8.53963 3.28128C9.66441 3.03813 10.8322 3.08098 11.9362 3.40591C13.0401 3.73084 14.0449 4.32747 14.8586 5.14118C15.6723 5.9549 16.269 6.95971 16.5939 8.06365C16.9188 9.16759 16.9617 10.3354 16.7185 11.4602Z" stroke="white" stroke-width="1.5" stroke-linecap="round" stroke-linejoin="round"/>
</g>
<defs>
<clipPath id="clip0_11089_897">
<rect width="20" height="20" fill="white"/>
</clipPath>
</defs>
</svg>
