<svg width="69" height="68" viewBox="0 0 69 68" fill="none" xmlns="http://www.w3.org/2000/svg">
<path d="M46.8366 41.1719C44.2016 45.73 39.8268 48.3437 34.833 48.3437C29.8393 48.3437 25.4644 45.73 22.8294 41.1719C22.6389 40.8076 22.5965 40.3839 22.711 39.9891C22.8255 39.5943 23.0882 39.259 23.444 39.0533C23.7999 38.8476 24.2215 38.7873 24.6208 38.8851C25.0201 38.9829 25.3661 39.2312 25.5866 39.5781C27.6691 43.1747 30.9522 45.1562 34.833 45.1562C38.7138 45.1562 42.0049 43.1747 44.0794 39.5781C44.1791 39.3877 44.3162 39.2193 44.4826 39.0832C44.6489 38.9471 44.8411 38.8461 45.0476 38.7862C45.254 38.7263 45.4704 38.7088 45.6838 38.7347C45.8972 38.7607 46.1031 38.8295 46.2892 38.937C46.4753 39.0446 46.6377 39.1887 46.7667 39.3607C46.8956 39.5326 46.9885 39.7289 47.0396 39.9377C47.0907 40.1465 47.0991 40.3634 47.0642 40.5755C47.0294 40.7876 46.9519 40.9905 46.8366 41.1719ZM61.9268 34C61.9268 39.3586 60.3377 44.5969 57.3606 49.0525C54.3835 53.508 50.1521 56.9807 45.2013 59.0314C40.2506 61.082 34.803 61.6186 29.5473 60.5731C24.2916 59.5277 19.464 56.9473 15.6748 53.1582C11.8857 49.369 9.30529 44.5414 8.25987 39.2857C7.21445 34.0301 7.751 28.5824 9.80166 23.6317C11.8523 18.6809 15.325 14.4495 19.7805 11.4724C24.2361 8.49527 29.4744 6.90625 34.833 6.90625C42.0161 6.91469 48.9026 9.77191 53.9819 14.8511C59.0611 19.9304 61.9183 26.8169 61.9268 34ZM58.7393 34C58.7393 29.2718 57.3372 24.6498 54.7103 20.7184C52.0835 16.787 48.3498 13.7229 43.9815 11.9135C39.6132 10.1041 34.8065 9.63067 30.1691 10.5531C25.5318 11.4755 21.2721 13.7524 17.9287 17.0957C14.5854 20.4391 12.3085 24.6988 11.3861 29.3361C10.4637 33.9735 10.9371 38.7802 12.7465 43.1485C14.5559 47.5168 17.6201 51.2505 21.5514 53.8773C25.4828 56.5042 30.1048 57.9062 34.833 57.9062C41.1712 57.8992 47.2478 55.3783 51.7295 50.8965C56.2113 46.4147 58.7322 40.3382 58.7393 34ZM25.2705 31.3437C25.7959 31.3437 26.3094 31.188 26.7463 30.8961C27.1831 30.6042 27.5235 30.1894 27.7246 29.704C27.9256 29.2186 27.9782 28.6846 27.8757 28.1693C27.7732 27.654 27.5203 27.1807 27.1488 26.8092C26.7773 26.4378 26.304 26.1848 25.7887 26.0823C25.2735 25.9798 24.7394 26.0324 24.254 26.2334C23.7686 26.4345 23.3538 26.7749 23.0619 27.2118C22.7701 27.6486 22.6143 28.1621 22.6143 28.6875C22.6143 29.392 22.8941 30.0676 23.3923 30.5658C23.8904 31.0639 24.566 31.3437 25.2705 31.3437ZM44.3955 26.0312C43.8702 26.0312 43.3566 26.187 42.9198 26.4789C42.483 26.7708 42.1425 27.1856 41.9415 27.671C41.7404 28.1564 41.6878 28.6904 41.7903 29.2057C41.8928 29.721 42.1458 30.1943 42.5173 30.5658C42.8887 30.9372 43.362 31.1902 43.8773 31.2927C44.3926 31.3952 44.9267 31.3426 45.412 31.1416C45.8974 30.9405 46.3122 30.6 46.6041 30.1632C46.896 29.7264 47.0518 29.2129 47.0518 28.6875C47.0518 27.983 46.7719 27.3074 46.2738 26.8092C45.7756 26.3111 45.1 26.0312 44.3955 26.0312Z" fill="#3C210E"/>
</svg>
