<svg width="20" height="20" viewBox="0 0 20 20" fill="none" xmlns="http://www.w3.org/2000/svg">
<g clip-path="url(#clip0_11089_902)">
<path d="M6.24939 10.5366L13.301 16.7186C13.3822 16.7903 13.4806 16.8396 13.5867 16.8618C13.6927 16.8839 13.8027 16.8781 13.9058 16.845C14.0089 16.8118 14.1016 16.7524 14.1749 16.6726C14.2481 16.5928 14.2994 16.4953 14.3236 16.3897L17.4994 2.59521C17.5025 2.58138 17.5018 2.56696 17.4973 2.55351C17.4928 2.54006 17.4848 2.52807 17.474 2.51884C17.4633 2.50961 17.4502 2.50348 17.4362 2.5011C17.4223 2.49873 17.4079 2.5002 17.3947 2.50537L1.56189 8.70146C1.4636 8.73929 1.38023 8.80798 1.3243 8.89722C1.26837 8.98646 1.2429 9.09143 1.2517 9.19638C1.26051 9.30133 1.30312 9.4006 1.37313 9.47927C1.44315 9.55794 1.5368 9.61178 1.64001 9.63271L6.24939 10.5366Z" stroke="white" stroke-width="1.5" stroke-linecap="round" stroke-linejoin="round"/>
<path d="M6.25 10.5375L17.4539 2.50781" stroke="white" stroke-width="1.5" stroke-linecap="round" stroke-linejoin="round"/>
<path d="M9.71641 13.577L7.325 16.0582C7.23859 16.1479 7.12737 16.2097 7.00561 16.2357C6.88384 16.2617 6.75708 16.2507 6.64157 16.2042C6.52607 16.1577 6.42709 16.0778 6.35732 15.9747C6.28755 15.8715 6.25018 15.7499 6.25 15.6254V10.5371" stroke="white" stroke-width="1.5" stroke-linecap="round" stroke-linejoin="round"/>
</g>
<defs>
<clipPath id="clip0_11089_902">
<rect width="20" height="20" fill="white"/>
</clipPath>
</defs>
</svg>
