<svg width="20" height="20" viewBox="0 0 20 20" fill="none" xmlns="http://www.w3.org/2000/svg">
<path d="M18.0407 16.5624C16.8508 14.5054 15.0172 13.0304 12.8774 12.3312C13.9358 11.7011 14.7582 10.7409 15.2182 9.59821C15.6781 8.45548 15.7503 7.19337 15.4235 6.00568C15.0968 4.81798 14.3892 3.77039 13.4094 3.02378C12.4296 2.27716 11.2318 1.8728 10 1.8728C8.76821 1.8728 7.57044 2.27716 6.59067 3.02378C5.6109 3.77039 4.90331 4.81798 4.57654 6.00568C4.24978 7.19337 4.32193 8.45548 4.78189 9.59821C5.24186 10.7409 6.06422 11.7011 7.12268 12.3312C4.98284 13.0296 3.14925 14.5046 1.9594 16.5624C1.91577 16.6336 1.88683 16.7127 1.87429 16.7953C1.86174 16.8778 1.86585 16.962 1.88638 17.0429C1.9069 17.1238 1.94341 17.1997 1.99377 17.2663C2.04413 17.3328 2.10731 17.3886 2.17958 17.4304C2.25185 17.4721 2.33175 17.499 2.41457 17.5093C2.49738 17.5197 2.58143 17.5134 2.66176 17.4907C2.74209 17.4681 2.81708 17.4296 2.88228 17.3775C2.94749 17.3254 3.00161 17.2608 3.04143 17.1874C4.51331 14.6437 7.11487 13.1249 10 13.1249C12.8852 13.1249 15.4867 14.6437 16.9586 17.1874C16.9985 17.2608 17.0526 17.3254 17.1178 17.3775C17.183 17.4296 17.258 17.4681 17.3383 17.4907C17.4186 17.5134 17.5027 17.5197 17.5855 17.5093C17.6683 17.499 17.7482 17.4721 17.8205 17.4304C17.8927 17.3886 17.9559 17.3328 18.0063 17.2663C18.0566 17.1997 18.0932 17.1238 18.1137 17.0429C18.1342 16.962 18.1383 16.8778 18.1258 16.7953C18.1132 16.7127 18.0843 16.6336 18.0407 16.5624ZM5.62503 7.49993C5.62503 6.63464 5.88162 5.78877 6.36235 5.06931C6.84308 4.34984 7.52636 3.78909 8.32579 3.45796C9.12522 3.12682 10.0049 3.04018 10.8535 3.20899C11.7022 3.3778 12.4818 3.79448 13.0936 4.40634C13.7055 5.01819 14.1222 5.79774 14.291 6.64641C14.4598 7.49508 14.3731 8.37474 14.042 9.17417C13.7109 9.9736 13.1501 10.6569 12.4306 11.1376C11.7112 11.6183 10.8653 11.8749 10 11.8749C8.84009 11.8737 7.72801 11.4124 6.90781 10.5922C6.0876 9.77195 5.62627 8.65987 5.62503 7.49993Z" fill="#3C210E"/>
</svg>
